<svg width="1920" height="428" viewBox="0 0 1920 428" fill="none" xmlns="http://www.w3.org/2000/svg">
<path d="M1920 0H0V426H1920V0Z" fill="#06113B"/>
<path d="M0 114L275.2 74.0001L548.267 120.4L823.467 27.6001L1096.53 96.4001L1371.73 166.8L1644.8 141.2L1920 149.2V427.6H1644.8H1371.73H1096.53H823.467H548.267H275.2H0V114Z" fill="#4BCFEE"/>
<path d="M0 144.4L275.2 205.2L548.267 130L823.467 229.2L1096.53 170L1371.73 157.2L1644.8 216.4L1920 133.2V427.6H1644.8H1371.73H1096.53H823.467H548.267H275.2H0V144.4Z" fill="#32A1CA"/>
<path d="M0 166.8L275.2 184.4L548.267 224.4L823.467 275.6L1096.53 270.8L1371.73 206.8L1644.8 235.6L1920 198.8V427.6H1644.8H1371.73H1096.53H823.467H548.267H275.2H0V166.8Z" fill="#2475A2"/>
<path d="M0 322L275.2 302.8L548.267 278.8L823.467 283.6L1096.53 307.6L1371.73 312.4L1644.8 283.6L1920 237.2V427.6H1644.8H1371.73H1096.53H823.467H548.267H275.2H0V322Z" fill="#1C4B77"/>
<path d="M0 374.8L275.2 320.4L548.267 374.8L823.467 354L1096.53 370L1371.73 360.4L1644.8 336.4L1920 357.2V427.6H1644.8H1371.73H1096.53H823.467H548.267H275.2H0V374.8Z" fill="#13254C"/>
</svg>
