<svg width="1920" height="960" viewBox="0 0 1920 960" fill="none" xmlns="http://www.w3.org/2000/svg">
<g clip-path="url(#clip0)">
<path d="M1920 534H0V960H1920V534Z" fill="#06113B"/>
<path d="M0 648L275.2 608L548.267 654.4L823.467 561.6L1096.53 630.4L1371.73 700.8L1644.8 675.2L1920 683.2V961.6H1644.8H1371.73H1096.53H823.467H548.267H275.2H0V648Z" fill="#4BCFEE"/>
<path d="M0 678.4L275.2 739.2L548.267 664L823.467 763.2L1096.53 704L1371.73 691.2L1644.8 750.4L1920 667.2V961.6H1644.8H1371.73H1096.53H823.467H548.267H275.2H0V678.4Z" fill="#32A1CA"/>
<path d="M0 700.8L275.2 718.4L548.267 758.4L823.467 809.6L1096.53 804.8L1371.73 740.8L1644.8 769.6L1920 732.8V961.6H1644.8H1371.73H1096.53H823.467H548.267H275.2H0V700.8Z" fill="#2475A2"/>
<path d="M0 856L275.2 836.8L548.267 812.8L823.467 817.6L1096.53 841.6L1371.73 846.4L1644.8 817.6L1920 771.2V961.6H1644.8H1371.73H1096.53H823.467H548.267H275.2H0V856Z" fill="#1C4B77"/>
<path d="M0 908.8L275.2 854.4L548.267 908.8L823.467 888L1096.53 904L1371.73 894.4L1644.8 870.4L1920 891.2V961.6H1644.8H1371.73H1096.53H823.467H548.267H275.2H0V908.8Z" fill="#13254C"/>
</g>
<defs>
<clipPath id="clip0">
<rect width="1920" height="960" fill="white"/>
</clipPath>
</defs>
</svg>
