<svg width="1920" height="254" viewBox="0 0 1920 254" fill="none" xmlns="http://www.w3.org/2000/svg">
<g clip-path="url(#clip0)">
<path opacity="0.25" d="M1919 254V156.019C1842.54 109.029 1753.26 87.9263 1666.2 96.7528C1553.62 108.119 1448.07 167.259 1335.32 176.128C1217.18 185.356 1099.26 140.398 986.2 101.494C875.368 63.3941 764.92 48.8315 651.16 73.8082C593.32 86.5082 539.4 111.569 484.04 135.911C335.816 201.083 138.2 284.247 -1 142.938V254H1919Z" fill="#14375F"/>
<path opacity="0.5" d="M1920 254V220.535C1899.2 175.853 1875.78 133.646 1843.7 101.494C1760.94 18.4785 1656 19.05 1560.67 60.1557C1510.83 81.6398 1464.53 115.337 1417.2 144.399C1351.73 184.616 1281.63 241.766 1207.87 249.534C1149.86 255.566 1094.43 229.595 1050.11 182.732C999.28 128.99 950.4 51.4985 884.304 28.2152C819.6 5.37634 754.144 42.3757 693.696 79.6078C633.248 116.84 573.44 162.158 506.624 170.73C411.056 183.113 325.376 122.301 236.384 88.519C188.064 70.1887 141.984 75.4592 97.04 104.394C61.152 127.445 20.24 161.396 0 208.619V254H1920Z" fill="#14375F"/>
<path d="M1920 254V242.083C1680.11 129.117 1417.46 103.039 1158.67 163.893C1089.87 180.065 1023.9 206.481 954.496 219.9C860.096 238.167 774.528 193.993 689.6 144.97C595.312 90.551 502.4 52.4087 398.08 63.5C259.632 78.3167 122.144 160.253 0 243.014V254H1920Z" fill="#14375F"/>
</g>
<defs>
<clipPath id="clip0">
<rect width="1920" height="254" fill="white" transform="translate(1920 254) rotate(-180)"/>
</clipPath>
</defs>
</svg>
